<mxfile host="app.diagrams.net" modified="2022-03-30T03:38:18.506Z" agent="5.0 (Windows NT 10.0; Win64; x64) AppleWebKit/537.36 (KHTML, like Gecko) Chrome/80.0.3987.100 Safari/537.36" etag="J5FiAcnzeLa3ZeIxrc3d" version="17.1.3" type="github">
  <diagram id="8g5WwzYs4_X878qFHneb" name="Page-1">
    <mxGraphModel dx="1146" dy="656" grid="1" gridSize="10" guides="1" tooltips="1" connect="1" arrows="1" fold="1" page="1" pageScale="1" pageWidth="827" pageHeight="1169" math="0" shadow="0">
      <root>
        <mxCell id="0" />
        <mxCell id="1" parent="0" />
        <mxCell id="jYhoIhDP0GpBJqzMbslU-1" value="" style="rounded=1;whiteSpace=wrap;html=1;strokeWidth=2;fillWeight=4;hachureGap=8;hachureAngle=45;fillColor=#B9E2D0;sketch=1;glass=0;shadow=0;" vertex="1" parent="1">
          <mxGeometry x="150" y="110" width="120" height="60" as="geometry" />
        </mxCell>
      </root>
    </mxGraphModel>
  </diagram>
</mxfile>
